<svg id="exam-dots" data-name="Layer 1" xmlns="http://www.w3.org/2000/svg" viewBox="0 0 1920 425.01"><defs><style>.cls-1,.cls-2,.cls-3,.cls-4,.cls-5,.cls-6,.cls-7,.cls-8,.cls-9{fill:#fda8a1;}.cls-1{opacity:0.74;}.cls-3{opacity:0.81;}.cls-4{opacity:0.89;}.cls-5{opacity:0.59;}.cls-6{opacity:0.57;}.cls-7{opacity:0.78;}.cls-8{opacity:0.83;}.cls-9{opacity:0.82;}</style></defs><title>dots-2</title><circle class="cls-1" cx="69.56" cy="354.47" r="59.55"/><circle class="cls-2" cx="267.09" cy="83.73" r="76.03"/><circle class="cls-3" cx="267.45" cy="338.56" r="29.77"/><circle class="cls-2" cx="390.85" cy="382.14" r="9.57"/><circle class="cls-4" cx="473.56" cy="145.88" r="43.06"/><circle class="cls-3" cx="545.75" cy="344.57" r="21.27"/><circle class="cls-5" cx="643.08" cy="81.74" r="43.6"/><circle class="cls-2" cx="632.71" cy="278.16" r="9.57"/><circle class="cls-2" cx="758.63" cy="338.33" r="52.63"/><circle class="cls-6" cx="894.56" cy="112.32" r="59.01"/><circle class="cls-7" cx="1097.48" cy="362.67" r="52.63"/><circle class="cls-2" cx="913.16" cy="382.02" r="29.77"/><circle class="cls-3" cx="1022.32" cy="178.45" r="10.63"/><circle class="cls-2" cx="1121.79" cy="74.79" r="54.89"/><circle class="cls-2" cx="1241.08" cy="322.72" r="15.42"/><circle class="cls-8" cx="1355.5" cy="119.24" r="37.22"/><circle class="cls-6" cx="1391.32" cy="333.76" r="59.01"/><circle class="cls-2" cx="1491.63" cy="66.08" r="22.33"/><circle class="cls-2" cx="1561.13" cy="169.81" r="6.87"/><circle class="cls-3" cx="1585.65" cy="344.19" r="10.63"/><circle class="cls-2" cx="1744.59" cy="102.73" r="76.03"/><circle class="cls-1" cx="1802.09" cy="313.82" r="48.91"/><circle class="cls-2" cx="113.03" cy="144.22" r="16.48"/><circle class="cls-3" cx="1836.11" cy="185.16" r="6.38"/><circle class="cls-2" cx="-26.63" cy="112.95" r="76.03"/><circle class="cls-6" cx="1919.62" cy="381.49" r="29.38"/><circle class="cls-3" cx="-0.25" cy="243.57" r="21.27"/><circle class="cls-2" cx="1919.75" cy="84.57" r="21.27"/><circle class="cls-2" cx="1919.71" cy="20.16" r="9.57"/><ellipse class="cls-9" cx="1638.15" cy="258.78" rx="35.85" ry="35.9"/><ellipse class="cls-2" cx="195.65" cy="228.28" rx="30.35" ry="30.39"/></svg>
