<svg id="Layer_1" data-name="Layer 1" xmlns="http://www.w3.org/2000/svg" viewBox="0 0 1920 425.01"><defs><style>.cls-1,.cls-2,.cls-3,.cls-4,.cls-5,.cls-6,.cls-7,.cls-8{fill:#fda8a1;}.cls-1{opacity:0.74;}.cls-3{opacity:0.81;}.cls-4{opacity:0.89;}.cls-5{opacity:0.59;}.cls-6{opacity:0.57;}.cls-7{opacity:0.78;}.cls-8{opacity:0.83;}</style></defs><title>dots</title><circle class="cls-1" cx="96.55" cy="326.58" r="59.55"/><circle class="cls-2" cx="267.21" cy="118.7" r="76.03"/><circle class="cls-3" cx="296.45" cy="292.56" r="29.77"/><circle class="cls-2" cx="420.85" cy="319.14" r="9.57"/><circle class="cls-4" cx="491.56" cy="188.88" r="43.06"/><circle class="cls-3" cx="536.75" cy="309.57" r="21.27"/><circle class="cls-5" cx="643.08" cy="127.74" r="43.6"/><circle class="cls-2" cx="720.71" cy="185.16" r="9.57"/><circle class="cls-2" cx="744.63" cy="280.33" r="52.63"/><circle class="cls-6" cx="894.56" cy="112.32" r="59.01"/><circle class="cls-7" cx="1044.48" cy="319.67" r="52.63"/><circle class="cls-2" cx="913.16" cy="250.02" r="29.77"/><circle class="cls-3" cx="1033.32" cy="156.45" r="10.63"/><circle class="cls-2" cx="1208.23" cy="144.22" r="64.33"/><circle class="cls-2" cx="1256.08" cy="303.72" r="15.42"/><circle class="cls-8" cx="1355.5" cy="119.24" r="37.22"/><circle class="cls-6" cx="1407.07" cy="267.57" r="59.01"/><circle class="cls-2" cx="1525.63" cy="167.08" r="22.33"/><circle class="cls-2" cx="1635.68" cy="247.36" r="15.42"/><circle class="cls-3" cx="1559.65" cy="303.19" r="10.63"/><circle class="cls-2" cx="1712.24" cy="118.7" r="76.03"/><circle class="cls-1" cx="1802.09" cy="313.82" r="48.91"/><circle class="cls-2" cx="113.03" cy="144.22" r="16.48"/><circle class="cls-3" cx="1836.11" cy="185.16" r="6.38"/><circle class="cls-2" cx="-26.63" cy="112.95" r="76.03"/><circle class="cls-6" cx="1919.62" cy="381.49" r="29.38"/><circle class="cls-3" cx="-0.25" cy="243.57" r="21.27"/><circle class="cls-2" cx="1919.75" cy="84.57" r="21.27"/></svg>
