<?xml version="1.0" encoding="utf-8"?>
<!-- Generator: Adobe Illustrator 19.2.0, SVG Export Plug-In . SVG Version: 6.00 Build 0)  -->
<svg version="1.1" id="Layer_1" xmlns="http://www.w3.org/2000/svg" xmlns:xlink="http://www.w3.org/1999/xlink" x="0px" y="0px"
	 viewBox="0 0 105.2 111" style="enable-background:new 0 0 105.2 111;" xml:space="preserve">
<style type="text/css">
	.st0{fill:#FFFFFF;}
	.st1{fill:#E7E7E7;}
</style>
<circle class="st0" cx="-166.3" cy="61.3" r="45.7"/>
<circle class="st0" cx="-59.3" cy="61.3" r="45.7"/>
<circle class="st0" cx="52.4" cy="61.8" r="45.7"/>
<circle class="st0" cx="157.8" cy="61.3" r="45.7"/>
<circle class="st0" cx="272.3" cy="61.3" r="45.7"/>
<image style="overflow:visible;" width="30" height="29" xlink:href="../images/facebook.png"  transform="matrix(1 0 0 1 -862.5805 -87.2894)">
</image>
<image style="overflow:visible;" width="30" height="29" xlink:href="../images/googleplus.png"  transform="matrix(1 0 0 1 -916.1208 -24.1954)">
</image>
<image style="overflow:visible;" width="30" height="29" xlink:href="../images/instagram.png"  transform="matrix(1 0 0 1 -908.0365 -60.0207)">
</image>
<image style="overflow:visible;" width="30" height="29" xlink:href="../images/linkedin.png"  transform="matrix(1 0 0 1 -859.7166 -49.2785)">
</image>
<image style="overflow:visible;" width="30" height="29" xlink:href="../images/twitter.png"  transform="matrix(1 0 0 1 -819.0365 -11.1905)">
</image>
<image style="overflow:visible;" width="30" height="29" xlink:href="../images/youtube.png"  transform="matrix(1 0 0 1 -866.3859 -8.6852)">
</image>
<image style="overflow:visible;" width="100" height="68" xlink:href="../../../../../Library/Group Containers/3L68KQB4HG.group.com.readdle.smartemail/cache/messagesData/1/10758/0-3.png"  transform="matrix(0.5 0 0 0.5 -810.299 -80.1338)">
</image>
<image style="overflow:visible;" width="200" height="68" xlink:href="../../../../../Library/Group Containers/3L68KQB4HG.group.com.readdle.smartemail/cache/messagesData/1/10758/0-4.png"  transform="matrix(0.5 0 0 0.5 -855.758 -127.4832)">
</image>
<image style="overflow:visible;" width="100" height="68" xlink:href="../../../../../Library/Group Containers/3L68KQB4HG.group.com.readdle.smartemail/cache/messagesData/1/10758/0-5.png"  transform="matrix(0.5 0 0 0.5 -736.299 -75.1338)">
</image>
<image style="overflow:visible;" width="200" height="132" xlink:href="../../../../../Library/Group Containers/3L68KQB4HG.group.com.readdle.smartemail/cache/messagesData/1/10758/0-6.png"  transform="matrix(0.5 0 0 0.5 -647.299 -75.1338)">
</image>
<g>
	<path class="st1" d="M-140.6,50.7c-0.7-3.1-2.5-5-5.6-5.5c-3.1-0.6-4.1-0.8-7.3-0.9c-0.6,0-2.8,0-3.8,0c-5.9,0-11.9,0-17.8,0
		c-1.7,0-2.9-0.1-5.5,0c-1.7,0-3.5,0.1-5.2,0.4c-2.9,0.6-5.1,2.8-5.8,5.6c-0.5,2-0.7,4.1-0.8,6.1c0,0.4-0.1,0.8-0.1,1.2
		c0,3.4,0,6.8,0,10.2c0.3,2.1,0.3,4.2,0.7,6.2c0.7,3.9,2.9,5.9,6.8,6.4c3,0.4,5.3,0.7,8.3,0.7c0.4,0,1.5,0,1.8,0
		c5.9,0,11.9,0,17.8,0c1.9-0.1,3.8-0.2,5.7-0.3c1.8-0.1,3.5-0.2,5.2-0.6c3-0.6,4.9-2.5,5.5-5.5c0.2-1,0.4-2,0.6-3.1c0-6,0-12,0-18
		C-140.2,52.7-140.3,51.7-140.6,50.7z M-158.7,63.2c-3.9,2.2-7.9,4.5-11.8,6.8c-0.6,0.4-0.8,0.3-0.8-0.5c0-2.3,0-4.6,0-6.8
		c0-2.2,0-4.4,0-6.7c0-0.7,0.1-1.1,0.9-0.6c3.9,2.3,7.8,4.5,11.7,6.7C-158,62.5-157.9,62.8-158.7,63.2z"/>
</g>
<g>
	<path class="st1" d="M-49,61.3c0.3-2.9,0.6-5.6,0.9-8.6c-2.7,0-5.1,0-7.7,0c0-1.6,0-3.1,0-4.6c0-2.1,0.7-2.8,2.8-2.8
		c1.6,0,3.2,0,4.8,0c0-1.5,0-2.9,0-4.2c0-1.3,0-2.7,0-4.1c-2.9,0-5.6-0.2-8.3,0c-5.2,0.4-8.1,2.8-9,7.6c-0.4,2-0.2,4.2-0.3,6.3
		c0,0.6,0,1.1,0,1.8c-1.7,0-3.1,0-4.7,0c0,2.9,0,5.7,0,8.6c1.6,0,3.1,0,4.7,0c0,8.1,0,16.1,0,24.2c3.4,0,6.7,0,10.1,0
		c0-8.1,0-16.1,0-24.2C-53.4,61.3-51.2,61.3-49,61.3z"/>
	<path class="st1" d="M-49,61.3c-2.3,0-4.4,0-6.8,0c0,8.1,0,16.2,0,24.2c-3.4,0-6.7,0-10.1,0c0-8.1,0-16.1,0-24.2
		c-1.6,0-3.1,0-4.7,0c0-2.9,0-5.7,0-8.6c1.5,0,3,0,4.7,0c0-0.7,0-1.2,0-1.8c0.1-2.1-0.1-4.3,0.3-6.3c0.9-4.7,3.9-7.2,9-7.6
		c2.7-0.2,5.4,0,8.3,0c0,1.4,0,2.7,0,4.1c0,1.3,0,2.7,0,4.2c-1.6,0-3.2,0-4.8,0c-2.1,0-2.8,0.7-2.8,2.8c0,1.5,0,2.9,0,4.6
		c2.5,0,5,0,7.7,0C-48.4,55.6-48.7,58.4-49,61.3z"/>
</g>
<g>
	<path class="st1" d="M63.2,51c1.3,0,2.4,1.1,2.4,2.3c0,1.2-1.1,2.3-2.4,2.3c-1.2,0-2.3-1-2.3-2.3C60.9,52.1,61.9,51,63.2,51z"/>
	<g>
		<path class="st1" d="M71.9,54.4c-0.4-5.4-4.3-9.2-9.7-9.7c-3.1-0.3-6.2-0.1-9.2-0.2c-3.1,0.1-6.2-0.1-9.4,0.2
			c-5.3,0.5-9.2,4.3-9.6,9.6c-0.4,6.1-0.4,12.3,0,18.4c0.3,5.1,4.3,9.1,9.4,9.5c6.3,0.4,12.7,0.4,19,0c5.1-0.4,9.1-4.3,9.4-9.5
			C72.3,66.5,72.3,60.4,71.9,54.4z M68.5,71.4c-0.2,4.7-2.9,7.3-7.6,7.4c-2.6,0.1-5.3,0-7.9,0c-2.6,0-5.3,0-7.9,0
			c-4.8-0.1-7.5-2.7-7.7-7.5c-0.2-5.3-0.2-10.5,0-15.8c0.2-4.8,2.9-7.4,7.6-7.5c5.3-0.2,10.6-0.2,15.9,0c1,0,2,0.2,3,0.5
			c3.3,1.1,4.5,3.7,4.6,6.8C68.7,60.7,68.7,66.1,68.5,71.4z"/>
		<path class="st1" d="M53,53.7c-5.4,0-9.9,4.3-9.9,9.7c0,5.4,4.4,9.7,9.9,9.8c5.4,0,9.9-4.3,9.9-9.7C62.9,58.1,58.5,53.7,53,53.7z
			 M53,69.7c-3.5,0-6.4-2.8-6.4-6.3c0-3.5,2.8-6.3,6.3-6.3c3.5,0,6.3,2.8,6.3,6.3C59.3,66.9,56.5,69.7,53,69.7z"/>
	</g>
</g>
<g>
	<path class="st1" d="M152.5,66.7c-0.8-1.9-0.8-1.9-0.7-3.7c-0.9-0.1-1.8-0.1-2.7-0.3c-3.8-0.7-6.7-3.7-7.1-7.6
		c-0.3-3,0.8-5.5,2.9-7.6c2-2,4.5-3,7.2-3.4c1.1-0.2,2.3-0.2,3.5-0.2c4.5,0,9,0,13.6,0c-0.2,0.1-0.3,0.2-0.4,0.3c-1.8,1-3.6,2-5.5,3
		c-0.4,0.2-1,0.2-1.5,0.2c0.3,0.4,0.6,0.8,0.9,1.2c2.3,3.6,1.8,7.9-1.3,10.9c-0.6,0.5-1.2,1-1.7,1.5c-0.3,0.3-0.6,0.6-0.9,0.9
		c-0.6,0.8-0.6,1.5,0.2,2.2c0.6,0.5,1.3,1,2,1.5c1,0.9,2.1,1.7,3,2.7c2.6,2.9,2.7,7.1,0.2,10.4c-1.6,2.1-3.8,3.4-6.3,4.2
		c-4,1.2-8.1,1.3-12.2,0.1c-1.9-0.6-3.6-1.6-4.8-3.2c-2-2.7-1.7-6.3,0.8-8.9c1.8-1.9,4-2.9,6.4-3.4c1.3-0.3,2.7-0.4,4-0.7
		C152.2,66.8,152.4,66.8,152.5,66.7z M153.9,80.1c0.4,0,0.8,0,1.1,0c1.5-0.1,2.9-0.5,4.2-1.4c1.8-1.4,2.2-4,0.6-5.7
		c-0.8-0.8-1.7-1.4-2.5-2.2c-1-0.9-2.2-1.3-3.6-1.1c-1.8,0.2-3.5,0.4-5.2,1.2c-1.3,0.6-2.4,1.5-2.7,3c-0.4,1.9,0.4,3.8,2.3,4.9
		C149.8,79.8,151.8,80.1,153.9,80.1z M157.9,55.7c-0.1-2.1-0.6-4.1-1.8-5.9c-0.5-0.7-1.1-1.4-1.9-1.9c-2.3-1.5-5.4-0.3-5.9,2.4
		c-0.6,3.1,0.3,6,2.4,8.3c1.3,1.4,3.1,1.7,4.8,0.9C157.3,58.9,157.9,57.5,157.9,55.7z"/>
	<path class="st1" d="M166,55.7c0-1.2,0-2.3,0-3.5c2.7,0,5.5,0,8.3,0c0-2.7,0-5.4,0-8.1c1.2,0,2.3,0,3.5,0c0,2.7,0,5.3,0,8
		c2.7,0,5.4,0,8.1,0c0,1.2,0,2.3,0,3.5c-2.7,0-5.3,0-8,0c0,2.8,0,5.6,0,8.4c-1.2,0-2.3,0-3.5,0c0-2.8,0-5.5,0-8.3
		C171.5,55.7,168.8,55.7,166,55.7z"/>
</g>
<circle class="st0" cx="-304.1" cy="61.3" r="45.7"/>
<g>
	<path class="st1" d="M-328.5,77.9c0.1,0,0.1,0.1,0.1,0.1c1.3,0.8,2.7,1.5,4.1,2.1c2.3,1,4.7,1.6,7.2,2c0.9,0.1,1.8,0.2,2.7,0.2
		c1.5,0.1,2.9,0,4.4-0.1c1-0.1,2-0.3,2.9-0.5c2.3-0.4,4.5-1.2,6.6-2.3c2-1,3.8-2.2,5.5-3.6c1.1-1,2.1-2,3.1-3.1c0.8-1,1.6-2,2.3-3.1
		c0.9-1.4,1.7-2.9,2.3-4.4c0.7-1.7,1.3-3.4,1.6-5.1c0.2-0.9,0.4-1.9,0.5-2.8c0.1-0.7,0.1-1.4,0.2-2.2c0-0.7,0-1.5,0-2.2
		c0-0.1,0-0.1,0.1-0.2c0.6-0.5,1.3-1,1.8-1.5c0.9-0.8,1.7-1.8,2.5-2.8c0.2-0.2,0.3-0.5,0.5-0.7c-0.9,0.4-1.8,0.7-2.7,0.9
		c-1.1,0.3-2.6,0.6-2.8,0.5c1-0.6,1.9-1.4,2.6-2.3c0.7-0.9,1.3-2,1.7-3.1c-0.1,0-0.1,0.1-0.1,0.1c-0.8,0.4-1.5,0.8-2.3,1.1
		c-1.2,0.5-2.5,0.9-3.8,1.2c-0.1,0-0.1,0-0.2-0.1c-0.3-0.3-0.7-0.7-1.1-0.9c-1.5-1.2-3.3-1.9-5.2-2.1c-1-0.1-2.1,0-3.1,0.2
		c-1.6,0.4-3.1,1.1-4.4,2.3c-1.1,1-2,2.2-2.6,3.6c-0.4,1-0.7,1.9-0.7,3c-0.1,0.8,0,1.7,0.1,2.5c0,0.2,0.1,0.4,0.1,0.7
		c-8.3-0.6-15.1-4.1-20.5-10.4c-1.3,2.3-1.6,4.7-1.1,7.2c0.6,2.5,2,4.5,4.1,6c-1.6,0-3-0.5-4.4-1.2c0,1.8,0.4,3.5,1.3,5
		c1.5,2.6,3.7,4.1,6.6,4.8c-0.7,0.2-1.5,0.3-2.2,0.3c-0.7,0-1.5,0-2.2-0.2c0.7,2,1.8,3.7,3.5,4.9c1.7,1.3,3.6,1.9,5.7,2
		C-318.2,77.1-323.1,78.4-328.5,77.9z"/>
	<path class="st1" d="M-328.5,77.9c5.4,0.5,10.3-0.8,14.6-4.1c-2.1-0.1-4-0.7-5.7-2c-1.7-1.3-2.8-2.9-3.5-4.9
		c0.8,0.1,1.5,0.2,2.2,0.2c0.7,0,1.5-0.1,2.2-0.3c-2.9-0.7-5.1-2.3-6.6-4.8c-0.9-1.5-1.3-3.2-1.3-5c1.4,0.8,2.9,1.2,4.4,1.2
		c-2.1-1.5-3.5-3.5-4.1-6c-0.6-2.5-0.2-4.9,1.1-7.2c5.4,6.3,12.2,9.8,20.5,10.4c0-0.2-0.1-0.4-0.1-0.7c-0.1-0.8-0.2-1.7-0.1-2.5
		c0.1-1,0.3-2,0.7-3c0.6-1.4,1.4-2.6,2.6-3.6c1.3-1.1,2.7-1.9,4.4-2.3c1-0.2,2-0.3,3.1-0.2c2,0.2,3.7,0.9,5.2,2.1
		c0.4,0.3,0.7,0.6,1.1,0.9c0.1,0.1,0.1,0.1,0.2,0.1c1.3-0.3,2.6-0.6,3.8-1.2c0.8-0.3,1.5-0.7,2.3-1.1c0,0,0.1,0,0.1-0.1
		c-0.4,1.2-0.9,2.2-1.7,3.1c-0.7,0.9-1.6,1.7-2.6,2.3c0.3,0,1.7-0.2,2.8-0.5c0.9-0.3,1.8-0.6,2.7-0.9c-0.2,0.2-0.3,0.5-0.5,0.7
		c-0.7,1-1.5,1.9-2.5,2.8c-0.6,0.5-1.2,1-1.8,1.5c-0.1,0.1-0.1,0.1-0.1,0.2c0,0.7,0,1.5,0,2.2c0,0.7-0.1,1.4-0.2,2.2
		c-0.1,0.9-0.3,1.9-0.5,2.8c-0.4,1.8-0.9,3.5-1.6,5.1c-0.7,1.5-1.4,3-2.3,4.4c-0.7,1.1-1.4,2.1-2.3,3.1c-0.9,1.1-2,2.1-3.1,3.1
		c-1.7,1.4-3.5,2.6-5.5,3.6c-2.1,1-4.3,1.8-6.6,2.3c-1,0.2-1.9,0.3-2.9,0.5c-1.5,0.2-2.9,0.2-4.4,0.1c-0.9-0.1-1.8-0.1-2.7-0.2
		c-2.5-0.3-4.9-1-7.2-2c-1.4-0.6-2.8-1.3-4.1-2.1C-328.5,77.9-328.5,77.9-328.5,77.9z"/>
</g>
<rect x="249.1" y="54.2" class="st1" width="9.4" height="28.2"/>
<path class="st1" d="M282,53.6c-2.8,0-6.3,1.9-7.8,4.4v-3.8h-9.4v28.2h9.4V65.8c0-2.5,2.2-4.7,4.7-4.7s4.7,2.2,4.7,4.7v16.6h9.4
	V64.6C292.9,58.6,287.9,53.6,282,53.6z"/>
<path class="st1" d="M253.8,37.6c-3.1,0-5.6,2.5-5.6,5.6s2.5,5.6,5.6,5.6c3.1,0,5.6-2.5,5.6-5.6S256.9,37.6,253.8,37.6z"/>
</svg>
